<svg width="1440" height="889" viewBox="0 0 1440 889" fill="none" xmlns="http://www.w3.org/2000/svg">
<path d="M263.498 228.304L308.669 183.148L474.297 183.148L508.517 217.357L553.414 217.357L567.103 230.904L580.791 244.314L579.148 248.829C575.589 259.229 578.601 268.671 587.635 275.376C593.658 279.891 604.471 279.344 611.042 274.281C627.468 261.829 619.392 236.514 598.996 236.514C595.437 236.514 591.194 237.198 589.688 238.02C587.224 239.388 585.308 237.883 571.62 224.336L556.289 209.01L534.525 209.284L512.897 209.421L478.403 174.938L305.932 174.938L260.76 220.094L-2.92388e-05 220.094L-2.88799e-05 228.304L263.498 228.304ZM587.498 251.156C589.962 246.503 592.973 244.861 598.586 244.724C605.019 244.724 611.863 250.745 611.863 256.355C611.863 261.829 608.304 267.439 603.787 269.355C592.563 274.007 581.749 261.966 587.498 251.156Z" fill="#1F1F1F"/>
<path d="M31.8936 549.867L62.2814 549.867L108.821 503.343L249.81 503.343L265.962 487.197C279.24 473.787 282.799 471.05 285.399 471.597C287.589 472.008 289.78 471.05 292.107 468.724C296.35 464.345 296.487 462.429 292.791 457.64C287.042 450.251 277.186 454.63 278.008 464.345C278.418 468.998 277.597 470.092 262.814 485.007L247.209 500.606L107.453 500.606L60.9126 547.13L31.2092 547.13C12.1826 547.13 1.36889 547.678 1.36889 548.499C1.36889 549.32 12.4563 549.867 31.8936 549.867Z" fill="#1F1F1F"/>
<path d="M42.0229 325.457L82.8137 325.457L122.51 365.14L253.916 365.14L264.593 375.813C273.08 384.433 275.133 387.17 275.133 390.591C275.133 399.075 284.852 402.496 290.053 395.791C293.749 391.001 293.612 389.086 289.369 384.844C286.631 381.97 285.126 381.423 281.567 382.107C277.46 382.928 276.365 382.107 266.92 372.666L256.791 362.403L124.152 362.403L83.3613 321.352L42.8442 321.626C11.9088 321.9 2.19018 322.447 1.64265 323.678C1.232 325.047 9.85556 325.457 42.0229 325.457Z" fill="#1F1F1F"/>
<path d="M49.5514 300.827L97.8707 300.964L112.928 314.51L127.985 328.194L285.399 328.194L324.411 367.192L324.411 419.463C324.411 470.503 324.411 471.734 321.673 472.555C316.061 474.334 316.198 485.281 321.947 488.018C329.338 491.438 336.867 484.323 333.992 476.66C333.308 474.881 331.529 473.103 330.023 472.555C327.148 471.734 327.148 470.913 327.148 418.779L327.148 365.824L286.768 325.457L130.038 325.457L99.3764 298.09L50.3727 298.09C18.616 298.09 1.36886 298.638 1.36886 299.459C1.36886 300.28 18.3422 300.827 49.5514 300.827Z" fill="#1F1F1F"/>
<path d="M3.01146 276.197C3.96963 276.197 27.2396 276.197 54.7529 276.197L104.715 276.197L138.935 310.405L308.669 310.405L334.677 284.407L511.118 284.407L542.053 315.879L542.053 405.916L538.631 408.106C533.84 411.253 529.734 418.232 529.734 423.295C529.734 428.357 533.84 435.336 538.631 438.483C544.243 442.178 555.331 440.536 559.985 435.199C567.924 426.305 565.734 413.716 555.468 408.243L550.266 405.506L550.266 312.458L513.992 276.197L331.939 276.197L305.932 302.195L143.042 302.195L108.821 267.986L55.4373 268.26L2.05328 268.671L1.64263 272.365C1.36887 274.828 1.77952 276.197 3.01146 276.197ZM540.684 417.137C544.654 413.169 550.814 413.579 554.236 417.958C555.878 420.01 557.11 422.337 557.11 423.295C557.11 424.252 555.878 426.579 554.236 428.631C549.034 435.199 537.947 431.641 537.947 423.295C537.947 421.379 539.179 418.642 540.684 417.137Z" fill="#1F1F1F"/>
<path d="M44.3498 741.437L85.8251 741.437L116.213 771.54L326.601 771.54L344.259 789.329L362.053 806.981L386.008 807.118L409.962 807.118L433.232 830.38L491.133 830.38L493.186 833.664C497.703 840.369 509.475 838.59 511.392 830.79C514.403 818.885 498.935 811.77 492.913 822.306L490.722 826.274L433.232 826.274L409.962 803.012L363.422 803.012L329.202 768.804L118.403 768.804L88.289 738.7L45.5818 738.7C17.9316 738.7 2.73767 739.247 2.73767 740.068C2.73767 740.889 17.5209 741.437 44.3498 741.437ZM496.335 822.99C499.346 819.98 504.137 820.254 507.285 823.675C509.612 826.274 509.612 826.822 507.696 830.106C505.369 834.485 499.62 835.579 496.335 832.432C493.597 829.559 493.46 825.727 496.335 822.99Z" fill="#1F1F1F"/>
<path d="M45.5817 723.648L88.289 723.648L101.977 737.332L115.529 751.015L333.308 751.015L364.791 782.487L567.376 782.487L624.867 839.958L760.38 839.958L777.217 856.789C793.643 873.209 794.053 873.756 792.411 877.451C790.905 880.598 791.042 881.556 793.506 884.84C798.981 892.229 808.973 889.219 808.973 880.188C808.973 875.125 805.004 871.43 799.392 871.43C796.791 871.43 791.726 867.188 778.859 854.326L761.886 837.221L627.194 837.221L598.722 808.486L570.114 779.75L366.16 779.75L334.677 748.278L117.034 748.278L89.6578 720.911L46.2662 720.911C18.2053 720.911 2.73763 721.459 2.73763 722.28C2.73763 723.101 17.9315 723.648 45.5817 723.648Z" fill="#1F1F1F"/>
<path d="M88.289 703.123L114.297 729.121L336.046 729.121L364.791 757.857L575.589 757.857L628.973 811.223L771.331 811.223L800.076 839.958L902.738 839.958L944.897 797.813L952.7 798.497C959.133 799.181 961.871 798.634 966.935 796.171C981.582 789.192 985.551 770.309 975.148 757.857C965.703 746.636 947.909 746.089 938.053 756.762C930.935 764.425 929.156 775.235 933.399 784.677L936 790.287L897.262 829.011L805.551 829.011L775.437 798.907L633.08 798.907L581.065 746.91L370.266 746.91L341.521 718.175L119.772 718.175L93.7643 692.176L2.73763 692.176L2.73763 703.123L88.289 703.123ZM947.087 764.562C958.312 753.341 975.696 768.393 966.935 781.803C963.787 786.729 956.806 788.508 950.92 786.045C945.034 783.719 943.255 780.708 943.118 773.867C943.118 769.898 944.076 767.709 947.087 764.562Z" fill="#1F1F1F"/>
<path d="M49.0038 664.809L95.1331 664.809L132.091 701.754L344.259 701.754L367.528 725.016L590.646 725.016L639.924 774.277L757.643 774.277L783.65 748.278L887.681 748.278L890.418 753.478C895.893 763.741 909.992 764.288 915.878 754.573C919.985 747.868 919.3 741.984 913.825 736.511C906.16 728.848 895.346 730.49 890.418 740.205L888.228 744.173L783.65 744.173L757.643 770.172L639.924 770.172L592.015 722.28L368.897 722.28L356.578 709.964L344.395 697.649L132.091 697.649L96.5019 662.072L49.5513 662.072C19.3004 662.072 2.73763 662.619 2.73763 663.44C2.73763 664.262 19.0266 664.809 49.0038 664.809ZM894.388 738.974C894.799 738.289 896.989 736.921 899.316 735.963C904.791 733.774 910.95 736.237 913.825 741.71C917.932 749.647 912.73 757.857 903.696 757.857C898.357 757.857 893.703 754.436 892.198 749.647C891.513 747.594 892.882 741.437 894.388 738.974Z" fill="#1F1F1F"/>
<path d="M88.4259 611.443L173.977 611.443L189.171 626.495L204.228 641.547L346.996 641.547L385.323 679.861L553.688 679.861L576.958 656.599L616.243 656.599C653.475 656.599 655.529 656.736 656.35 659.199C657.445 662.893 664.289 665.493 667.848 663.577C671.818 661.388 673.734 657.283 672.639 653.178C671.133 646.883 662.236 644.831 657.719 649.757C655.392 652.357 653.475 652.494 616.243 652.494L577.095 652.494L551.909 677.124L469.916 677.124L387.924 676.987L348.365 637.442L204.639 637.442L175.894 608.706L89.384 608.706C32.5779 608.706 2.73765 609.117 2.73765 610.075C2.73765 611.033 32.1673 611.443 88.4259 611.443Z" fill="#1F1F1F"/>
<path d="M92.8061 592.286L182.738 592.286L208.745 618.285L354.251 618.285L372.046 636.347L389.977 654.409L551.498 654.683L576.958 629.232L591.605 629.232C601.049 629.232 606.388 629.779 606.388 630.6C606.388 633.474 613.095 638.81 616.654 638.81C621.582 638.81 626.92 633.063 626.92 627.863C626.92 619.106 615.285 614.727 609.125 621.295C607.62 622.937 606.388 624.716 606.388 625.4C606.388 625.948 599.407 626.495 590.92 626.495L575.589 626.495L550.951 651.125L392.167 651.125L356.578 615.548L211.346 615.548L183.696 588.181L93.2167 588.181C13.6882 588.181 2.73763 588.455 2.73763 590.234C2.73763 592.012 13.6882 592.286 92.8061 592.286ZM611.316 624.032C613.779 620.474 618.16 620.201 621.719 623.348C626.51 627.726 623.361 634.979 616.654 634.979C612.958 634.979 609.125 631.832 609.125 628.547C609.125 627.726 610.084 625.674 611.316 624.032Z" fill="#1F1F1F"/>
<path d="M95.9544 564.919L189.308 564.919L214.221 590.918L364.791 590.918L405.856 631.968L438.981 631.968C461.156 631.968 472.243 632.379 472.243 633.337C472.243 636.073 478.951 641.547 482.236 641.547C487.574 641.547 492.776 636.621 492.776 631.421C492.776 621.569 481.004 617.464 474.57 625.127L471.011 629.232L407.224 629.232L395.863 617.874C389.703 611.717 384.639 606.106 384.639 605.559C384.639 605.012 413.795 604.601 449.384 604.601L513.992 604.601L540 578.603L627.878 578.603C703.711 578.603 715.894 578.876 715.894 580.518C715.894 582.981 721.095 586.813 724.243 586.813C728.487 586.813 732.73 582.023 732.73 577.234C732.73 569.024 722.738 565.877 717.536 572.445L714.798 575.866L651.97 575.592L589.278 575.182L595.574 568.614L601.871 562.182L700.289 562.182L717.673 544.531L734.51 544.667L751.346 544.667L754.905 549.32C757.78 553.014 759.422 553.972 763.255 553.972C772.563 553.972 777.08 542.889 770.236 536.457C765.719 532.215 760.243 532.626 755.589 537.552L751.757 541.657L715.346 541.657L697.825 559.446L600.091 559.446L583.939 575.866L538.631 575.866L512.624 601.865L380.122 601.865L364.106 586.676L288.821 587.497L300.046 576.14L311.407 564.919L392.304 564.919L408.456 548.499L426.114 548.499L435.422 557.393L444.593 566.287L533.293 566.287L542.738 556.709C552.046 547.267 552.319 547.13 559.437 547.13C566.008 547.13 566.692 547.404 567.513 550.551C569.293 557.804 577.369 560.13 583.665 555.204C588.183 551.646 588.593 544.394 584.487 540.289C580.517 536.32 573.126 536.594 569.703 540.973C567.24 543.983 565.871 544.394 558.205 544.394L549.445 544.394L530.555 563.551L488.669 563.551L446.92 563.414L438.844 556.025L430.768 548.499L504.548 548.499L516.593 536.184L528.776 523.868L566.145 523.868C598.175 523.868 603.65 524.142 603.65 525.921C603.65 528.384 607.894 530.71 612.274 530.71C619.392 530.71 622.677 520.995 617.338 515.658C613.643 511.964 609.673 512.237 605.567 516.343L602.145 519.763L527.817 519.763L514.54 532.763L501.399 545.762L405.719 545.762L390.935 560.814L311.818 560.814L284.578 586.676L216.137 587.497L209.43 580.655C205.597 576.824 202.586 573.403 202.586 572.992C202.586 572.582 204.913 572.171 207.65 572.171C210.525 572.171 222.297 572.035 233.795 571.898L254.738 571.761L282.388 543.025L360.684 543.025L403.118 500.606L493.46 500.606L526.312 467.766L656.487 467.766L659.087 473.513C664.289 484.597 675.924 486.923 684.411 478.439C687.833 475.018 688.517 473.376 688.517 467.766C688.517 462.156 687.833 460.514 684.411 457.093C682.221 454.767 678.525 452.577 676.335 452.03C670.586 450.798 663.057 454.493 659.635 460.24L656.76 465.029L523.574 465.029L492.091 496.501L447.331 496.501L402.57 496.638L381.491 517.848L360.411 538.92L282.662 538.92L252.548 569.024L197.521 569.024L191.224 562.182L96.9125 562.182C35.0418 562.182 2.73764 562.593 2.73764 563.551C2.73764 564.509 34.7681 564.919 95.9544 564.919ZM477.719 626.495C479.224 624.99 481.414 623.758 482.51 623.758C485.11 623.758 490.038 628.684 490.038 631.284C490.038 633.884 485.11 638.81 482.51 638.81C479.909 638.81 474.981 633.884 474.981 631.284C474.981 630.189 476.213 628 477.719 626.495ZM572.441 541.931C574.768 539.604 579.833 539.878 582.297 542.478C585.582 545.762 585.034 550.825 581.065 553.425C577.916 555.477 577.369 555.477 574.221 553.425C570.525 550.962 569.567 544.804 572.441 541.931ZM665.932 460.24C670.038 455.998 675.924 455.861 680.03 459.556C685.506 464.756 685.095 472.282 679.072 476.934C672.913 481.723 662.51 475.976 662.51 467.766C662.51 465.166 663.741 462.293 665.932 460.24ZM759.422 537.826C762.297 535.636 763.939 535.773 767.635 538.373C771.194 540.836 771.468 545.215 768.319 548.772C765.445 552.057 761.749 551.92 758.19 548.362C755.179 545.352 755.589 540.836 759.422 537.826Z" fill="#1F1F1F"/>
<path d="M19.9847 458.735C25.46 464.208 36.5475 458.872 35.1787 451.483C34.4943 448.199 35.8631 446.283 45.5817 436.568L56.806 425.347L73.7794 425.347C90.0684 425.347 90.7528 425.484 93.3536 428.768C98.1444 434.789 107.042 432.736 108.821 425.073C109.506 422.2 108.958 420.558 106.22 417.958C101.84 413.442 97.8707 413.442 93.7642 417.958C90.6159 421.242 90.0684 421.379 72.9581 421.516L55.4372 421.516L43.5285 433.284C33.9467 442.588 31.0722 444.641 28.6083 444.093C25.46 443.272 20.6692 445.051 18.8897 447.788C17.1102 450.388 17.6577 456.546 19.9847 458.735Z" fill="#1F1F1F"/>
<path d="M28.8822 503.754C34.3575 510.869 44.3499 506.901 44.0761 497.596C43.9392 493.491 46.1293 490.891 64.7453 472.145L85.5514 451.346L192.456 451.346L201.627 460.651C208.061 467.082 210.662 470.64 210.114 472.145C209.156 474.471 211.483 480.081 214.084 481.723C214.905 482.271 217.232 482.818 219.148 482.818C227.635 482.818 230.373 470.229 222.57 466.534C219.833 465.303 217.916 465.166 215.589 466.124C212.852 467.356 211.483 466.535 203.133 458.051L193.825 448.609L82.8137 448.609L61.7339 469.682C43.1179 488.291 40.1065 490.754 36.9582 490.207C29.4297 488.702 23.9544 497.733 28.8822 503.754Z" fill="#1F1F1F"/>
<path d="M28.7453 371.297C30.5247 372.939 32.7149 373.487 35.7263 373.076C39.6959 372.392 41.0647 373.35 50.2358 382.381L60.2282 392.507L208.745 392.507L225.856 409.611C241.186 424.937 242.829 427.126 242.555 430.957C241.597 439.304 251.316 443.683 257.338 437.662C261.034 433.968 260.76 429.999 256.517 425.758C253.916 423.158 252.137 422.474 249.399 423.021C246.114 423.705 243.65 421.652 227.772 406.053L209.84 388.402L60.7757 388.402L51.6046 379.097C43.5286 370.887 42.4335 369.245 43.1179 366.097C43.8023 363.361 43.2548 361.719 40.5171 359.119C36.5476 355.014 33.3993 354.603 29.019 357.75C25.0495 360.487 24.9126 367.876 28.7453 371.297Z" fill="#1F1F1F"/>
<path d="M62.9657 636.073C66.7984 639.905 73.095 639.631 76.3802 635.389C78.9809 632.105 79.6653 631.968 96.0912 631.968L112.928 631.968L123.878 642.915C132.639 651.809 134.692 654.683 134.418 657.42C133.597 663.03 137.566 667.546 143.042 667.546C151.392 667.546 154.951 657.83 148.517 652.631C146.053 650.715 143.726 650.167 140.578 650.578C136.608 651.262 135.239 650.304 125.247 640.315L114.297 629.232L96.2281 629.232C79.9391 629.232 78.1596 628.958 77.3383 626.769C76.6539 624.169 71.3155 621.022 67.8935 621.022C65.1558 621.022 60.2281 627.042 60.2281 630.326C60.2281 631.968 61.46 634.568 62.9657 636.073Z" fill="#1F1F1F"/>
<path d="M135.103 261.145C137.43 262.924 139.894 263.745 141.673 263.334C143.863 262.787 146.327 264.429 151.939 270.039L159.331 277.565L286.768 277.565L300.182 263.881L313.734 250.198L382.312 250.198L385.46 253.619C391.346 260.05 401.065 256.766 401.065 248.419C401.065 246.366 399.833 243.493 398.327 241.988C394.357 238.02 389.43 238.567 385.734 243.356L382.722 247.461L311.407 247.461L284.03 274.828L162.068 274.828L154.951 267.576C148.654 261.282 147.833 259.64 148.654 256.629C150.023 251.019 146.19 246.093 140.441 246.093C131.544 246.093 128.122 255.671 135.103 261.145Z" fill="#1F1F1F"/>
<path d="M157.688 542.341C158.509 543.846 159.878 545.488 160.7 546.036C163.3 547.815 169.323 547.267 171.103 545.078C172.471 543.436 176.441 543.025 190.129 543.025L207.513 543.025L233.521 517.027L329.338 517.027L332.35 521.132C336.456 526.468 342.205 526.742 346.175 521.542C349.46 517.437 348.913 513.606 344.669 509.774C340.836 506.49 337.141 506.901 333.171 510.869L329.749 514.29L232.015 514.29L207.376 538.92L190.677 538.92C174.935 538.92 173.84 538.784 173.84 536.32C173.84 533.31 169.049 529.342 165.217 529.342C162.342 529.342 156.046 535.226 156.046 537.826C156.046 538.784 156.867 540.836 157.688 542.341Z" fill="#1F1F1F"/>
<path d="M185.612 665.904C188.624 670.282 196.015 670.009 199.574 665.493L202.312 662.072L338.783 662.072L381.217 704.491L520.015 704.491L523.437 707.912C525.354 709.828 527.817 711.333 529.049 711.333C535.757 711.333 540.411 704.217 537.673 698.333C534.935 692.45 524.669 692.039 522.068 697.649C520.836 700.523 520.152 700.523 451.027 700.386L381.217 700.386L338.783 657.967L202.312 657.967L198.205 654.546C193.141 650.304 190.951 650.304 186.844 654.546C182.874 658.378 182.601 661.525 185.612 665.904Z" fill="#1F1F1F"/>
<path d="M283.072 232.82C286.357 235.83 292.106 235.83 295.118 232.82C297.171 230.63 299.772 230.357 314.418 230.767L331.392 231.315L357.673 205.042L451.574 205.042L453.627 209.01C455.954 213.389 458.281 214.621 464.03 214.621C468.684 214.621 473.612 209.147 473.612 204.084C473.612 199.569 467.863 194.095 462.935 194.095C459.24 194.095 453.08 198.337 453.08 200.937C453.08 201.758 434.464 202.306 404.076 202.306L355.209 202.306L330.57 226.936L298.54 226.936L296.76 223.241C292.654 214.621 280.608 216.673 280.608 226.115C280.608 228.715 281.703 231.588 283.072 232.82ZM460.335 198.2C464.03 196.285 464.304 196.285 467.452 199.979C471.422 204.495 470.464 209.147 464.989 211.063C462.114 212.158 460.745 211.884 458.555 209.831C454.586 206.274 455.407 200.937 460.335 198.2Z" fill="#1F1F1F"/>
<path d="M355.483 345.983C363.148 351.867 373.278 345.846 371.909 336.267C371.361 331.615 371.772 330.657 380.395 322.173L389.567 313.142L478.54 313.142L496.882 331.752L496.882 410.979L479.635 428.221C462.662 445.325 462.251 445.599 457.186 444.914C447.057 443.546 441.171 454.63 448.289 461.608C451.574 465.029 456.091 465.85 460.608 464.208C463.894 462.84 466.768 455.588 465.399 451.893C464.441 449.43 466.768 446.42 482.646 430.684L500.989 412.348L500.989 331.615L478.403 309.037L389.156 309.037L378.616 319.3C369.445 328.194 367.665 329.426 365.338 328.057C359.316 324.91 351.787 330.383 351.787 337.909C351.787 341.878 352.608 343.656 355.483 345.983ZM356.715 333.12C359.863 329.973 364.38 330.52 367.255 334.488C369.582 337.636 369.719 338.183 367.665 341.193C366.16 343.52 364.106 344.614 361.369 344.614C355.209 344.614 352.335 337.499 356.715 333.12ZM453.354 447.788C457.049 446.693 462.662 450.798 462.662 454.63C462.662 459.145 458.144 462.84 453.764 461.745C447.331 460.103 446.92 449.841 453.354 447.788Z" fill="#1F1F1F"/>
<path d="M360.821 448.472C362.875 450.114 365.202 451.346 366.16 451.346C369.308 451.346 375.057 445.736 375.057 442.588C375.057 440.809 373.825 437.799 372.319 435.883C369.719 432.736 369.582 430.41 369.582 404.548L369.582 376.77L400.38 345.983L418.449 345.983C435.97 345.983 436.654 346.119 439.939 349.403C445.551 355.014 452.806 353.372 455.133 345.846C456.365 341.877 451.848 335.857 447.194 335.309C444.73 335.036 442.403 335.994 440.076 338.32C436.654 341.741 435.97 341.877 418.449 341.877L400.38 341.877L366.844 375.402L366.844 432.189L363.559 433.557C356.715 436.157 355.346 444.093 360.821 448.472Z" fill="#1F1F1F"/>
<path d="M386.144 464.892C388.882 471.871 396.821 474.06 402.57 469.271C405.034 467.219 405.719 465.303 405.855 460.377C405.855 454.356 406.403 453.535 416.395 443.409L427.072 432.736L427.072 381.286L430.494 378.549C434.601 375.402 435.011 369.381 431.452 366.097C427.757 362.676 420.776 363.087 418.312 366.782C415.163 371.16 415.574 374.307 419.544 378.276C423.103 381.833 423.103 381.833 423.103 406.601L423.103 431.368L412.7 441.767C402.981 451.483 402.16 452.03 397.232 451.619C388.882 450.798 383.27 457.503 386.144 464.892ZM390.935 456.272C393.673 453.398 396.821 453.535 399.969 456.409C403.528 459.556 403.118 464.482 399.011 467.219C395.863 469.271 395.316 469.271 392.167 467.219C388.198 464.619 387.65 459.556 390.935 456.272Z" fill="#1F1F1F"/>
<path d="M460.471 123.352C466.905 140.593 489.627 145.519 501.947 132.246C509.065 124.583 510.844 113.773 506.601 104.331L504 98.7212L542.738 59.9968L634.449 59.9968L664.563 90.1006L806.92 90.1006L858.935 142.098L1069.73 142.098L1098.48 170.833L1320.23 170.833L1346.24 196.832L1437.26 196.832L1437.26 185.885L1351.98 185.885L1338.84 172.886L1325.57 159.887L1103.95 159.887L1075.21 131.151L864.411 131.151L811.027 77.7854L668.669 77.7854L639.924 49.05L537.262 49.05L516.319 69.8489L495.513 90.7847L485.521 90.7847C476.897 90.7847 474.707 91.3321 469.916 94.4793C460.745 100.5 456.639 113.089 460.471 123.352ZM473.065 107.205C474.297 105.289 477.582 103.1 480.456 102.279C494.418 98.037 503.316 116.51 491.817 125.678C480.182 134.709 464.852 119.657 473.065 107.205Z" fill="#1F1F1F"/>
<path d="M465.536 242.535C469.095 247.051 474.023 247.187 478.54 242.672C481.825 239.388 482.646 239.251 498.798 239.251L515.498 239.251L525.764 249.514C534.662 258.682 535.894 260.324 535.483 264.292C534.525 274.144 546.16 280.302 553.004 273.46C560.122 266.344 553.414 254.577 543.422 256.219C538.768 256.903 537.947 256.492 527.681 246.093L516.73 235.146L499.346 235.146C482.646 235.146 481.825 235.009 478.54 231.725C474.023 227.21 469.095 227.346 465.536 231.862C463.893 233.914 462.662 236.241 462.662 237.199C462.662 238.156 463.893 240.483 465.536 242.535ZM541.779 260.05C544.654 257.861 546.297 257.997 549.992 260.597C555.468 264.429 552.319 273.46 545.338 273.46C538.905 273.46 536.441 264.292 541.779 260.05Z" fill="#1F1F1F"/>
<path d="M525.08 151.54C531.787 159.476 544.791 158.108 549.582 148.94L551.772 144.835L656.35 144.835L682.357 118.836L800.076 118.836L847.985 166.728L1071.1 166.728L1095.74 191.359L1307.91 191.359L1343.5 226.936L1390.31 226.936C1420.7 226.936 1437.26 226.388 1437.26 225.567C1437.26 224.746 1420.97 224.199 1391 224.199L1344.87 224.199L1307.91 187.254L1095.74 187.254L1072.47 163.992L849.354 163.992L800.076 114.731L682.357 114.731L656.35 140.73L551.909 140.73L550.266 136.488C548.213 131.562 541.643 127.046 536.578 127.046C534.662 127.046 531.103 128.278 528.639 129.783C520.837 134.572 519.194 144.561 525.08 151.54ZM525.901 137.582C528.228 133.067 531.24 131.288 536.715 131.151C549.034 131.151 552.183 148.256 540.684 153.045C535.483 155.234 529.186 152.908 526.312 147.708C523.848 143.329 523.848 141.414 525.901 137.582Z" fill="#1F1F1F"/>
<path d="M553.141 95.7108C555.468 98.037 557.247 98.4475 561.901 98.037C567.787 97.3528 567.924 97.4896 578.464 108.026L589.278 118.836L606.798 118.836C624.046 118.836 624.593 118.973 627.194 122.257C630.479 126.499 636.776 126.772 640.608 122.941C644.304 119.246 644.03 115.278 639.924 111.31C638.144 109.394 635.407 107.889 633.764 107.889C630.89 107.889 625.551 112.268 625.551 114.731C625.551 115.552 618.844 116.099 608.03 116.099L590.646 116.099L579.97 105.426C569.977 95.3003 569.566 94.6161 570.251 89.8269C570.935 85.7218 570.525 84.2166 567.65 81.3431C565.46 79.1537 562.586 77.7854 560.122 77.7854C551.635 77.7854 546.981 89.5532 553.141 95.7108ZM556.152 82.7114C559.985 80.1115 564.502 81.2062 566.281 85.0376C569.566 92.1531 561.354 98.5843 555.741 93.5215C552.046 90.2374 552.319 85.1745 556.152 82.7114Z" fill="#1F1F1F"/>
<path d="M615.422 372.529C618.16 375.402 626.099 375.402 628.426 372.529C629.384 371.297 630.068 368.287 630.068 365.824C629.932 361.992 631.437 359.803 641.43 349.951L652.928 338.457L652.928 245.409L685.095 213.252L750.935 213.252L769.277 194.643L769.277 164.813L753.673 148.94L676.882 148.94L665.658 160.16C654.981 170.833 654.023 171.381 648.958 170.97C641.977 170.56 637.871 174.254 637.871 180.959C637.871 186.433 642.935 191.359 648.411 191.359C655.255 191.359 660.593 181.917 657.034 176.307C656.076 174.665 658.129 171.791 666.342 163.581L676.882 153.045L753.673 153.045L765.171 164.813L765.171 194.916L749.293 210.516L683.726 210.516L648.821 245.409L648.821 338.457L638.418 348.856C628.973 358.298 627.605 359.256 624.593 358.161C621.171 356.929 616.38 358.571 614.327 361.582C612.548 364.182 613.095 370.339 615.422 372.529ZM643.346 175.623C648.684 170.833 657.582 176.854 654.297 183.149C651.833 187.801 647.726 189.169 643.893 186.569C639.924 183.97 639.65 179.043 643.346 175.623Z" fill="#1F1F1F"/>
<path d="M621.719 683.418C622.403 685.06 624.593 687.113 626.373 688.208C629.521 689.85 629.658 690.397 629.658 705.038L629.658 720.227L642.525 733.09C654.57 744.994 655.392 746.226 654.707 750.331C653.338 758.815 662.783 763.741 669.08 757.857C672.913 754.299 672.913 751.015 669.08 746.226C666.753 743.215 665.384 742.668 661.825 743.215C657.719 743.9 656.487 742.942 645.536 731.995L633.764 720.227L633.764 705.312C633.764 690.671 633.764 690.534 637.871 686.702C642.662 682.187 643.072 677.535 639.103 672.472C631.985 663.304 616.654 672.882 621.719 683.418ZM626.373 673.84C627.468 672.608 629.384 671.651 630.479 671.651C638.008 671.651 640.745 680.682 634.449 684.787C631.3 686.839 630.753 686.839 627.605 684.787C623.635 682.187 623.087 677.124 626.373 673.84Z" fill="#1F1F1F"/>
<path d="M633.49 15.2516C634.859 16.62 637.871 17.5779 640.061 17.5779C643.346 17.5779 647.042 20.5882 661.141 34.6822L678.251 51.7867L812.943 51.7866L870.707 109.257L1073.84 109.257L1105.32 140.73L1322.69 140.73L1336.65 154.413L1350.48 168.097L1393.87 168.097C1421.93 168.097 1437.26 167.549 1437.26 166.728C1437.26 165.907 1422.21 165.36 1394.83 165.36L1352.26 165.36L1324.88 137.993L1106.69 137.993L1075.21 106.521L872.624 106.521L815.133 49.05L679.62 49.05L662.783 32.2192C646.357 15.799 645.947 15.2516 647.589 11.557C649.095 8.40982 648.958 7.45206 646.494 4.168C641.019 -3.2211 631.027 -0.210721 631.027 8.68357C631.027 11.1466 632.122 14.0201 633.49 15.2516Z" fill="#1F1F1F"/>
<path d="M662.646 610.212C664.973 612.538 666.753 612.948 671.407 612.538C677.293 611.854 677.43 611.99 687.97 622.527L698.783 633.337L716.304 633.337C733.551 633.337 734.099 633.474 736.7 636.758C741.901 643.326 752.852 639.905 752.852 631.558C752.852 628.547 746.966 622.39 743.954 622.39C742.722 622.39 739.848 624.169 737.521 626.495L733.414 630.6L700.152 630.6L689.749 620.201C679.62 610.212 679.209 609.527 679.894 604.601C680.578 600.223 680.03 598.717 677.156 595.844C672.913 591.602 668.259 591.328 663.331 595.16C658.814 598.717 658.403 605.97 662.646 610.212ZM663.331 599.812C663.878 598.581 665.795 596.939 667.574 596.254C674.418 593.654 679.62 600.496 675.65 606.654C673.049 610.622 668.669 611.033 664.973 607.749C662.373 605.422 661.962 603.507 663.331 599.812Z" fill="#1F1F1F"/>
<path d="M662.51 515.248C664.836 520.858 676.471 521.132 678.251 515.658C679.072 513.058 680.304 512.922 705.354 512.922L731.635 512.922L742.449 502.112C752.715 491.712 753.399 491.302 758.327 491.986C762.707 492.67 764.213 492.123 767.087 489.249C771.331 485.007 771.604 480.355 767.772 475.429C765.719 472.829 763.665 471.871 760.243 471.871C753.536 471.871 749.84 475.976 750.251 482.955C750.662 488.018 750.114 488.975 739.848 499.238L728.897 510.185L681.125 510.185L678.114 506.49C671.407 498.007 658.54 505.259 662.51 515.248ZM755.589 476.66C761.201 471.597 769.414 478.029 766.129 485.144C764.35 488.975 759.833 490.07 756 487.47C752.167 485.007 751.893 479.944 755.589 476.66Z" fill="#1F1F1F"/>
<path d="M670.175 352.687C675.24 356.656 679.893 356.245 684.411 351.456L688.243 347.351L723.559 347.351L732.319 338.457L741.217 329.562L839.909 329.562L856.061 313.142L901.369 313.142L927.376 287.143L1059.88 287.143L1067.82 294.669L1075.62 302.195L1112.71 301.785C1133.11 301.648 1149.81 301.922 1149.81 302.332C1149.81 302.743 1144.88 307.942 1138.86 313.689L1127.77 324.089L1047.7 324.089L1031.54 340.509L1013.89 340.509L1004.58 331.615L995.407 322.721L906.707 322.721L897.262 332.299C887.954 341.604 887.544 341.877 880.836 341.877C874.403 341.877 873.855 341.467 871.939 337.362C869.338 331.615 863.589 329.562 858.525 332.436C853.323 335.309 851.27 339.825 853.049 344.751C855.65 352.14 865.643 354.056 870.297 348.035C872.76 345.025 874.129 344.614 881.795 344.614L890.555 344.614L909.445 325.457L951.331 325.457L993.08 325.594L1001.16 332.983L1009.23 340.509L935.589 340.509L910.951 365.139L873.719 365.139C851.681 365.139 836.35 364.592 836.35 363.908C836.35 361.308 831.97 358.298 828.137 358.298C823.209 358.298 819.924 361.445 819.924 366.371C819.924 371.16 822.388 374.307 827.042 375.402C829.916 376.086 831.559 375.539 834.297 372.802L837.855 369.245L912.319 369.245L938.327 343.246L1034.28 343.246L1049.06 328.194L1128.05 328.194L1156.24 301.922L1224.27 302.195L1230.84 308.627C1234.4 312.184 1237.41 315.468 1237.41 316.016C1237.41 316.563 1225.64 317.11 1211.27 317.247L1185.13 317.384L1170.89 331.615L1156.79 345.983L1079.32 345.983L1036.88 388.401L946.54 388.401L913.688 421.242L848.669 421.242L783.65 421.105L780.913 415.358C777.217 407.422 769.825 403.864 762.433 406.053C755.316 408.106 751.483 413.306 751.483 420.421C751.483 437.525 771.741 443.409 780.365 428.768L783.24 423.979L916.426 423.979L949.278 391.138L1038.66 391.138L1059.06 370.613L1079.32 350.088L1157.34 350.088L1187.45 319.984L1242.48 319.984L1248.78 326.826L1343.09 326.826C1404.96 326.826 1437.26 326.415 1437.26 325.457C1437.26 324.499 1405.37 324.089 1344.32 324.089L1251.24 324.089L1238.51 311.09L1225.92 298.09L1075.21 298.09L1034.14 257.04L1001.29 257.04L968.441 256.903L965.703 252.524C960.228 243.767 947.224 247.461 947.224 257.724C947.224 267.439 959.133 271.544 965.43 263.881L968.989 259.776L1032.78 259.776L1044.14 271.134C1050.3 277.291 1055.36 282.901 1055.36 283.449C1055.36 283.996 1026.07 284.407 990.342 284.407L925.323 284.407L899.042 310.405L725.749 310.405L723.559 306.984C717.399 297.543 703.3 305.069 707.954 315.195C710.555 321.079 721.643 321.489 723.422 315.879C724.243 313.142 725.475 313.142 787.346 313.142L850.312 313.142L845.931 318.616C843.468 321.626 840.456 324.773 839.087 325.457C837.719 326.278 816.502 326.689 788.304 326.689L739.985 326.689L730.951 335.72L721.916 344.614L688.791 344.614L685.232 339.825C682.22 335.994 680.578 335.036 676.745 335.036C667.027 335.036 662.646 346.804 670.175 352.687ZM672.091 339.825C677.567 334.899 685.779 340.783 683.179 347.761C681.399 352.277 676.882 353.645 672.776 350.909C668.669 348.172 668.395 343.246 672.091 339.825ZM757.232 416.726C760.928 409.611 768.593 408.243 774.068 413.716C780.776 420.284 776.122 432.189 766.951 432.189C762.707 432.052 759.559 430.136 757.232 426.031C755.179 422.473 755.179 420.421 757.232 416.726ZM858.935 335.583C862.084 333.531 862.631 333.531 865.779 335.583C867.696 336.815 869.338 338.593 869.338 339.551C870.16 347.214 862.768 351.73 857.703 346.53C854.418 343.246 854.966 338.183 858.935 335.583ZM952.973 252.387C954.616 251.156 956.806 250.198 957.764 250.198C960.228 250.198 965.019 255.261 965.019 257.724C965.019 258.818 963.787 261.008 962.281 262.513C960.776 264.018 958.585 265.25 957.49 265.25C954.616 265.25 949.962 260.324 949.962 257.176C949.962 255.671 951.331 253.482 952.973 252.387Z" fill="#1F1F1F"/>
<path d="M672.228 413.579C674.281 416.179 676.335 417.137 679.757 417.137C686.464 417.137 690.16 413.032 689.749 406.053C689.338 400.99 689.886 400.033 700.152 389.77L711.103 378.823L736.015 378.823C759.97 378.823 760.928 378.96 761.749 381.697C762.297 383.202 764.213 384.981 765.992 385.665C776.669 389.77 783.376 374.307 772.973 369.929C768.046 367.876 762.981 369.518 761.749 373.623C760.928 375.949 759.011 376.086 734.646 376.086L708.365 376.086L697.551 386.896C687.285 397.296 686.601 397.706 681.673 397.022C677.293 396.338 675.787 396.885 672.913 399.759C668.669 404.001 668.395 408.653 672.228 413.579ZM677.84 399.896C681.536 398.801 687.148 402.906 687.148 406.737C687.148 411.253 682.631 414.948 678.251 413.853C671.817 412.211 671.407 401.948 677.84 399.896Z" fill="#1F1F1F"/>
<path d="M686.601 740.068L763.118 740.068L774.342 728.848C784.745 718.448 786.114 717.627 790.494 718.038C797.886 718.585 802.129 715.164 802.129 708.87C802.129 698.744 791.863 694.092 785.019 701.07C781.46 704.491 780.639 709.143 782.966 712.701C783.924 714.343 781.871 717.217 773.658 725.29L763.118 735.963L686.327 735.963L674.829 724.195L674.829 694.365L690.433 678.492L756.274 678.492L791.179 643.599L791.179 550.551L801.992 539.741C811.574 530.3 813.08 529.205 815.544 530.573C817.597 531.668 819.376 531.668 821.977 530.437C828.274 527.563 828.274 517.437 821.977 514.564C815.407 511.553 808.015 517.711 809.795 524.689C810.205 526.605 807.194 530.573 798.707 538.92L787.072 550.551L787.072 643.599L754.905 675.756L689.065 675.756L670.722 694.365L670.722 724.469L686.601 740.068ZM789.947 701.754C793.779 699.702 799.392 703.26 799.392 707.912C799.392 714.07 792.958 717.49 788.167 713.659C783.65 710.101 784.471 704.628 789.947 701.754Z" fill="#1F1F1F"/>
<path d="M690.57 263.197C694.951 267.713 697.414 267.439 702.479 262.513L706.586 258.408L739.848 258.408L750.251 268.807C760.38 278.796 760.791 279.481 760.106 284.407C759.422 288.785 759.97 290.291 762.844 293.164C767.087 297.406 771.741 297.68 776.669 293.848C781.186 290.291 781.597 283.038 777.354 278.796C775.027 276.47 773.247 276.06 768.593 276.47C762.707 277.154 762.57 277.018 752.03 266.481L741.217 255.671L723.696 255.671C706.449 255.671 705.901 255.534 703.3 252.25C699.741 247.735 692.35 247.461 689.338 251.84C686.327 256.219 686.601 259.366 690.57 263.197ZM764.624 281.944C768.867 275.786 778.722 280.438 776.943 287.828C775.3 294.122 766.129 295.08 763.802 289.333C762.16 285.364 762.16 285.364 764.624 281.944Z" fill="#1F1F1F"/>
<path d="M769.278 239.251C770.783 240.756 773.795 241.988 775.848 241.988C778.038 241.988 780.913 240.756 782.281 239.251C784.608 236.651 786.525 236.514 823.894 236.514L863.042 236.514L887.681 211.884L1051.94 211.884L1091.63 251.566L1235.36 251.566L1264.11 280.302L1350.62 280.302C1407.42 280.302 1437.26 279.891 1437.26 278.933C1437.26 277.975 1407.97 277.565 1352.12 277.565L1266.98 277.565L1251.79 262.513L1236.46 247.461L1093 247.461L1054.68 209.147L886.312 209.147L874.677 220.778L863.042 232.272L785.156 232.546L783.376 229.262C780.228 223.104 771.331 223.378 767.909 229.673C765.856 233.504 766.266 236.241 769.278 239.251Z" fill="#1F1F1F"/>
<path d="M769.277 141.687C770.646 144.972 776.122 147.024 779.817 145.656C781.46 144.972 785.43 147.982 794.19 156.739L806.236 168.781L806.236 183.696C806.236 198.064 806.099 198.885 802.814 201.621C792.411 210.105 802.677 225.02 814.585 218.589C820.882 215.305 820.335 204.495 813.764 200.937C810.479 199.158 810.342 198.611 810.342 183.97L810.342 168.781L797.475 155.918C785.019 143.603 784.608 142.919 785.293 137.993C785.84 133.751 785.43 132.52 782.829 130.604C778.449 127.593 774.068 127.867 770.646 131.425C767.635 134.572 767.361 136.898 769.277 141.687ZM805.551 204.221C808.7 202.169 809.247 202.169 812.395 204.221C814.312 205.453 815.817 207.779 815.817 209.421C815.817 212.842 812.122 217.357 809.384 217.357C801.992 217.357 799.255 208.326 805.551 204.221Z" fill="#1F1F1F"/>
<path d="M800.076 777.698C801.855 779.614 804.046 781.119 804.73 781.119C808.152 781.119 812.943 778.245 813.764 775.782C814.586 773.046 815.681 772.909 831.97 772.909L849.354 772.909L860.03 783.445C870.023 793.708 870.433 794.392 869.749 799.181C869.065 803.286 869.475 804.791 872.35 807.665C879.331 814.507 889.734 810.538 889.734 800.96C889.734 793.844 885.49 790.15 878.099 790.971C872.213 791.655 872.076 791.518 861.536 780.982L850.722 770.172L833.202 770.172C815.954 770.172 815.407 770.035 812.806 766.751C809.521 762.509 803.224 762.236 799.392 766.067C795.696 769.761 795.97 773.73 800.076 777.698ZM877.825 794.255C880.7 793.16 882.068 793.434 884.259 795.487C888.228 799.044 887.407 804.381 882.479 807.118C878.783 809.033 878.509 809.033 875.361 805.339C871.392 800.823 872.35 796.171 877.825 794.255Z" fill="#1F1F1F"/>
<path d="M815.817 267.986C817.46 269.628 820.335 270.723 823.346 270.723C828 270.723 833.612 267.029 833.612 263.881C833.612 263.06 839.635 262.513 849.08 262.513L864.411 262.513L889.049 237.883L1047.83 237.883L1083.42 273.46L1228.38 273.46L1242.21 287.143L1256.17 300.827L1346.78 300.827C1426.31 300.827 1437.26 300.553 1437.26 298.774C1437.26 296.995 1426.31 296.722 1347.19 296.722L1257.26 296.722L1231.25 270.723L1086.3 270.723L1067.68 252.25L1048.93 233.778L889.049 233.778L863.042 259.776L848.395 259.776C838.951 259.776 833.612 259.229 833.612 258.408C833.612 255.671 826.905 250.198 823.62 250.198C821.84 250.198 818.692 251.429 816.639 253.071C812.122 256.629 811.711 263.881 815.817 267.986ZM817.46 256.766C820.745 252.524 827.589 253.071 829.779 257.724C833.065 264.839 824.167 270.997 818.281 265.66C815.407 263.06 815.133 259.776 817.46 256.766Z" fill="#1F1F1F"/>
<path d="M822.935 642.094C824.715 644.968 828.274 648.525 830.875 649.894C836.213 652.767 845.932 653.315 850.312 650.988C852.776 649.62 854.692 650.988 867.833 664.125L882.479 678.766L904.517 678.903L926.692 679.177L944.213 696.555L961.597 714.07L1134.07 714.07L1179.24 668.914L1440 668.914L1440 660.704L1176.23 660.704L1131.06 705.859L965.703 705.859L930.114 670.282L884.943 670.282L872.076 657.42C859.346 644.694 859.209 644.557 860.852 640.042C864.411 629.779 861.399 620.337 852.365 613.632C847.027 609.801 835.118 609.801 829.916 613.632C820.198 620.885 817.323 632.516 822.935 642.094ZM830.19 625.263C832.517 620.611 839.087 617.601 844.015 618.832C853.871 621.295 857.156 632.242 850.586 640.042C845.658 645.926 837.856 646.062 832.106 640.315C827.726 635.8 827.042 631.147 830.19 625.263Z" fill="#1F1F1F"/>
<path d="M877.141 473.239C878.509 475.976 881.658 479.26 884.532 480.765L889.734 483.502L889.734 576.55L926.008 612.811L1108.06 612.811L1134.07 586.813L1296.82 586.813L1314.07 603.917L1331.32 620.885L1437.95 620.337L1438.36 616.506L1438.77 612.811L1335.29 612.811L1301.06 578.603L1131.33 578.603L1105.32 604.601L930.114 604.601L897.947 572.445L897.947 483.091L901.369 480.902C906.16 477.755 910.266 470.776 910.266 465.713C910.266 460.651 906.16 453.672 901.369 450.525C896.852 447.651 885.49 448.472 881.384 452.167C878.099 455.04 874.677 462.156 874.677 465.987C874.677 467.355 875.772 470.64 877.141 473.239ZM885.764 460.377C889.186 455.998 895.346 455.588 899.316 459.556C904.928 465.166 900.684 474.608 892.608 474.608C888.502 474.608 882.89 469.408 882.89 465.713C882.89 464.756 884.122 462.429 885.764 460.377Z" fill="#1F1F1F"/>
<path d="M887.954 630.6C890.829 632.926 892.882 633.337 896.578 632.789C901.232 632.105 902.053 632.516 912.319 642.915L923.27 653.862L940.654 653.862C957.354 653.862 958.175 653.999 961.46 657.283C966.662 662.483 972.548 661.798 975.833 655.641C978.023 651.399 977.749 649.346 974.601 645.926C970.905 641.957 965.703 642.094 961.46 646.336C958.175 649.62 957.354 649.757 941.065 649.757L924.091 649.757L913.825 639.357C904.654 629.916 903.696 628.547 904.38 624.579C905.338 618.422 900.684 612.811 894.388 612.811C884.532 612.811 880.289 624.579 887.954 630.6ZM889.186 617.737C894.799 612.127 903.833 618.422 900.548 625.674C898.905 629.095 896.989 629.916 892.471 629.232C886.996 628.547 885.08 621.706 889.186 617.737Z" fill="#1F1F1F"/>
<path d="M902.327 190.674C905.749 196.695 912.73 197.243 916.836 192.043L919.574 188.622L1058.78 188.622L1101.22 231.041L1169.38 230.904C1236.59 230.63 1237.55 230.767 1240.15 233.504C1243.98 237.609 1247.95 238.43 1251.79 235.967C1259.45 230.904 1256.58 220.094 1247.68 220.094C1244.4 220.094 1242.34 221.052 1240.43 223.515L1237.69 226.936L1101.22 226.936L1058.78 184.517L919.985 184.517L916.563 181.096C912.182 176.717 908.35 176.717 904.106 181.096C900.274 184.791 900 186.569 902.327 190.674Z" fill="#1F1F1F"/>
<path d="M929.43 66.9754C930.114 68.2069 932.578 69.9857 934.768 70.9436C939.696 72.9961 945.855 70.5331 947.909 65.7439C949.277 62.7335 949.551 62.7335 978.023 62.7335L1006.77 62.7335L1030.04 85.9955L1076.58 85.9955L1093.69 103.1L1110.94 120.204L1321.32 120.204L1336.65 135.256L1351.85 150.308L1394.56 150.308C1422.07 150.308 1437.26 149.761 1437.26 148.94C1437.26 148.119 1422.48 147.571 1395.51 147.571L1353.63 147.571L1338.84 132.519L1323.92 117.468L1113.67 117.468L1095.74 99.679L1077.67 81.8904L1030.04 81.8904L1006.77 58.6284L949.414 58.6284L946.403 54.9339C942.57 50.0078 934.357 49.7342 930.662 54.3866C927.924 57.8075 927.376 63.4176 929.43 66.9754ZM932.988 57.5338C936.684 52.1972 945.855 54.9339 945.855 61.3651C945.855 67.7964 936.684 70.533 932.988 65.1965C931.757 63.5545 930.798 61.7757 930.798 61.3651C930.798 60.9546 931.757 59.1758 932.988 57.5338Z" fill="#1F1F1F"/>
<path d="M961.597 579.971L1050.98 579.971L1061.25 569.708C1070.69 560.267 1071.92 559.582 1075.07 560.814C1085.61 564.782 1093.41 550.004 1084.52 543.025C1076.85 537.141 1066.72 543.162 1068.09 552.741C1068.64 557.393 1068.23 558.351 1059.6 566.835L1050.43 575.866L961.46 575.866L943.118 557.256L943.118 478.029L960.365 460.787C977.338 443.683 977.749 443.409 982.814 444.093C987.194 444.778 988.7 444.23 991.574 441.357C995.817 437.115 996.091 432.462 992.258 427.536C989.247 423.705 983.498 422.747 978.707 425.347C975.559 426.989 973.369 433.42 974.601 436.978C975.422 439.167 972.411 442.999 957.354 458.324L939.011 476.934L939.011 557.393L961.597 579.971ZM980.076 428.768C984.319 424.937 990.205 427.4 990.753 433.147C991.163 436.568 990.479 437.936 987.741 439.852C984.456 441.904 983.909 441.904 980.76 439.852C976.517 437.115 976.243 432.189 980.076 428.768ZM1072.61 547.404C1075.35 543.573 1082.05 543.299 1084.11 546.994C1086.02 550.688 1085.89 553.425 1083.29 555.888C1080.27 559.035 1076.03 558.625 1073.02 554.93C1069.87 551.235 1069.87 551.235 1072.61 547.404Z" fill="#1F1F1F"/>
<path d="M969.81 691.492C971.589 693.407 974.327 694.913 975.833 694.913C980.076 694.913 985.414 692.039 986.236 689.165C987.057 686.839 989.658 686.702 1035.92 686.702L1084.79 686.702L1109.43 662.072L1140.91 662.072L1143.24 666.177C1147.89 674.387 1159.39 672.198 1159.39 662.893C1159.39 655.23 1151.18 650.988 1145.7 655.915C1143.92 657.42 1139 658.104 1125.44 658.378L1107.51 658.788L1082.6 683.966L988.426 683.966L986.373 679.998C982.814 673.156 973.916 672.061 969.262 677.945C965.43 682.734 965.703 687.387 969.81 691.492ZM974.875 677.945C982.54 675.208 987.741 685.745 980.897 690.123C975.285 693.818 970.221 690.397 970.768 683.282C971.042 680.271 972.137 678.903 974.875 677.945Z" fill="#1F1F1F"/>
<path d="M987.057 550.414C990.616 554.93 995.544 555.067 1000.06 550.551C1003.35 547.267 1004.03 547.13 1021.55 547.13L1039.62 547.13L1073.16 513.606L1073.16 456.956L1076.85 455.177C1081.37 452.988 1083.97 446.83 1081.92 443.409C1081.1 442.178 1078.77 440.125 1076.85 439.031C1073.57 437.252 1073.02 437.252 1069.46 439.852C1064.53 443.546 1063.98 447.925 1067.54 452.851C1070.28 456.409 1070.42 458.461 1070.42 484.46L1070.42 512.237L1039.62 543.025L1021.55 543.025C1004.03 543.025 1003.35 542.889 1000.06 539.605C995.544 535.089 990.616 535.226 987.057 539.741C985.414 541.794 984.182 544.12 984.182 545.078C984.182 546.036 985.414 548.362 987.057 550.414Z" fill="#1F1F1F"/>
<path d="M1008.55 522.911C1012.24 526.331 1019.22 525.921 1021.69 522.226C1024.7 517.848 1024.43 514.701 1020.46 510.732C1017.03 507.311 1017.03 507.175 1017.03 482.407L1017.03 457.367L1027.3 447.241C1036.47 438.073 1037.98 437.115 1042.22 437.389C1051.39 438.21 1057.14 431.505 1053.86 423.705C1050.98 416.863 1043.32 414.948 1037.43 419.737C1034.97 421.789 1034.28 423.705 1034.14 428.631C1034.14 434.515 1033.6 435.336 1023.47 445.462L1012.93 456.135L1012.93 507.722L1009.51 510.459C1005.4 513.606 1004.99 519.627 1008.55 522.911ZM1040.99 421.789C1044.14 419.737 1044.68 419.737 1047.83 421.789C1051.8 424.389 1052.35 429.452 1049.06 432.736C1046.33 435.61 1043.18 435.473 1040.03 432.599C1036.47 429.452 1036.88 424.526 1040.99 421.789Z" fill="#1F1F1F"/>
<path d="M1041.67 647.02C1043.18 648.525 1045.78 649.757 1047.56 649.757C1050.84 649.757 1056.73 645.241 1056.73 642.915C1056.73 642.094 1070.56 641.547 1092.73 641.547L1128.59 641.547L1155.97 614.18L1277.66 614.18L1284.91 621.295C1290.94 627.316 1291.89 628.821 1291.21 632.105C1290.11 637.989 1293.81 642.915 1299.56 642.915C1308.46 642.915 1311.88 633.337 1304.9 627.863C1302.57 626.084 1300.11 625.263 1298.33 625.674C1296.14 626.221 1293.67 624.579 1288.06 618.969L1280.67 611.443L1153.23 611.443L1125.86 638.81L1057.28 638.81L1054.27 635.389C1050.43 631.01 1044 630.737 1041.13 634.979C1038.11 639.221 1038.39 643.736 1041.67 647.02Z" fill="#1F1F1F"/>
<path d="M1095.33 379.37C1099.71 382.381 1102.86 382.107 1106.83 378.139L1110.25 374.718L1207.98 374.718L1232.62 350.088L1249.19 350.088C1265.75 350.088 1265.89 350.088 1266.71 353.508C1268.49 360.487 1277.79 361.308 1282.04 354.877C1285.73 349.267 1281.49 341.877 1274.51 341.877C1272.32 341.877 1269.86 342.835 1268.9 343.93C1267.53 345.572 1263.56 345.983 1249.87 345.983L1232.49 345.983L1206.48 371.981L1110.66 371.981L1107.65 367.876C1102.04 360.35 1092.32 363.634 1092.32 373.076C1092.32 375.949 1093.28 378.002 1095.33 379.37Z" fill="#1F1F1F"/>
<path d="M1106.28 412.621C1107.1 414.4 1108.88 416.042 1110.25 416.453C1112.71 417.274 1112.85 419.874 1112.85 470.229L1112.85 523.184L1153.23 563.551L1309.83 563.551L1325.29 577.234L1340.76 590.781L1389.63 590.918C1421.38 590.918 1438.63 590.37 1438.63 589.549C1438.63 588.728 1421.66 588.181 1390.59 588.181L1342.54 588.181L1327.35 574.497L1312.02 560.814L1154.6 560.814L1115.59 521.816L1115.59 469.545C1115.59 420.01 1115.73 417.274 1118.05 416.453C1121.75 415.358 1124.08 409.748 1122.43 405.506C1119.7 398.39 1108.75 398.39 1106.01 405.506C1105.19 407.558 1104.64 409.2 1104.78 409.337C1104.78 409.474 1105.46 410.979 1106.28 412.621Z" fill="#1F1F1F"/>
<path d="M1147.21 431.368C1150.36 435.473 1154.6 435.883 1159.12 432.736C1161.72 430.957 1162.27 429.452 1161.99 425.21C1161.58 420.01 1162.13 419.189 1177.05 404.138L1192.52 388.401L1332.55 388.401L1379.09 341.877L1408.79 341.877C1427.82 341.877 1438.63 341.33 1438.63 340.509C1438.63 339.688 1427.54 339.141 1408.11 339.141L1377.72 339.141L1331.18 385.665L1190.19 385.665L1174.04 401.811C1159.8 416.042 1157.34 417.958 1154.05 417.411C1151.04 417 1149.54 417.821 1147.21 420.558C1143.65 425.21 1143.65 426.852 1147.21 431.368Z" fill="#1F1F1F"/>
<path d="M1150.36 504.027C1153.92 507.585 1157.34 508.269 1160.49 506.217C1161.86 505.396 1165.55 508.269 1173.35 515.795L1184.3 526.605L1315.57 526.605L1335.7 546.72L1355.82 566.972L1394.14 567.382C1432.33 567.793 1438.63 567.382 1438.63 564.919C1438.63 564.098 1423.57 563.551 1397.84 563.551L1357.19 563.551L1317.49 523.868L1186.08 523.868L1175.41 513.195C1166.92 504.575 1164.87 501.838 1164.87 498.417C1164.87 490.754 1155.7 486.649 1150.91 491.986C1146.8 496.638 1146.66 500.333 1150.36 504.027Z" fill="#1F1F1F"/>
<path d="M1183.48 463.114C1186.08 465.85 1187.73 466.398 1190.46 465.713C1193.61 465.029 1195.94 466.808 1212.09 482.681L1230.16 500.606L1379.22 500.606L1388.4 509.911C1396.47 518.121 1397.57 519.763 1396.88 522.911C1396.2 525.647 1396.75 527.289 1399.48 529.889C1403.45 533.994 1406.6 534.405 1410.98 531.258C1413.03 529.889 1413.99 527.837 1413.99 524.689C1413.99 518.806 1410.02 515.111 1404.41 515.932C1400.71 516.479 1398.94 515.385 1389.9 506.49L1379.5 496.501L1230.98 496.501L1214.01 479.397C1198.81 464.071 1197.03 461.882 1197.44 458.051C1198.4 449.704 1188.68 445.325 1182.66 451.346C1178.97 455.04 1179.24 459.008 1183.48 463.114Z" fill="#1F1F1F"/>
<path d="M1214.14 420.01C1215.92 423.021 1221.67 424.389 1224.96 422.747C1226.87 421.652 1229.06 423.021 1236.87 430.957L1246.17 440.399L1357.19 440.399L1378.27 419.326C1397.29 400.169 1399.76 398.254 1403.18 398.938C1406.05 399.485 1407.83 398.801 1410.43 396.201C1414.68 391.822 1414.81 389.907 1411.12 385.117C1405.51 378.002 1396.2 381.833 1396.2 391.275C1396.2 395.517 1394.14 397.98 1375.25 416.863L1354.45 437.662L1247.54 437.662L1238.78 428.768C1231.39 421.242 1229.89 419.053 1229.75 414.948C1229.61 409.2 1226.46 406.19 1220.99 406.19C1214.42 406.19 1210.59 413.99 1214.14 420.01Z" fill="#1F1F1F"/>
<path d="M1291.48 236.378C1293.95 238.293 1296.27 238.841 1299.42 238.43C1303.39 237.746 1304.76 238.704 1314.75 248.693L1325.7 259.776L1343.63 259.776C1358.14 259.776 1361.84 260.187 1362.39 261.692C1362.8 262.787 1364.71 264.702 1366.77 266.071C1374.3 270.997 1382.78 262.376 1378.27 254.44C1375.39 249.24 1367.18 248.693 1363.89 253.482C1361.7 257.04 1361.43 257.04 1344.32 257.04L1327.07 257.04L1316.12 246.093C1306.95 236.925 1305.31 234.462 1305.58 231.315C1306.13 226.115 1302.02 221.052 1297.23 221.052C1288.61 221.052 1284.91 231.041 1291.48 236.378Z" fill="#1F1F1F"/>
<path d="M1333.92 471.187C1338.16 475.566 1341.99 475.566 1346.51 471.05C1350.07 467.492 1350.48 467.355 1367.32 467.492L1384.29 467.629L1396.33 455.998C1405.78 446.556 1408.79 444.367 1411.12 445.188C1413.99 446.009 1419.33 443.957 1421.11 441.22C1422.89 438.62 1422.34 432.462 1420.02 430.273C1418.92 429.042 1415.77 428.084 1413.31 428.084C1407.7 428.084 1403.59 433.01 1404.96 438.073C1405.51 440.536 1403.59 443.136 1394.42 452.304L1383.19 463.661L1366.36 463.661C1349.93 463.661 1349.25 463.524 1346.65 460.24C1344.05 456.819 1338.43 455.724 1335.15 457.914C1333.37 459.145 1330.49 464.208 1330.49 466.398C1330.49 467.219 1332 469.408 1333.92 471.187Z" fill="#1F1F1F"/>
</svg>
