<svg width="305" height="61" viewBox="0 0 305 61" fill="none" xmlns="http://www.w3.org/2000/svg">
<path fill-rule="evenodd" clip-rule="evenodd" d="M187.5 44C196.651 44 203 37.9558 203 30.5C203 23.0442 196.651 17 187.5 17C178.349 17 172 23.0442 172 30.5C172 37.9558 178.349 44 187.5 44ZM187.5 40C193.109 40 196.586 35.7467 196.586 30.5C196.586 25.2533 193.109 21 187.5 21C181.891 21 178.414 25.2533 178.414 30.5C178.414 35.7467 181.891 40 187.5 40Z" fill="white"/>
<path d="M68 18V44H74V36L79.5 31.5C79.5 31.5 86.7 40.7 89 44H97L84 27.8182L96 18H88C84.6 21 74 29 74 29L74 18H68Z" fill="white"/>
<path fill-rule="evenodd" clip-rule="evenodd" d="M130 44C130 44 120.326 23.8 117.526 18L110 18C106.7 25 98 44 98 44L105 44L108.132 37L118.868 37L122 44L130 44ZM113.5 25L109.474 34L117.526 34L113.5 25Z" fill="white"/>
<path d="M134 44H140V23L147 44L153 44C154.1 40.3 160 23 160 23L160 44H166V18H156L150 35L144 18L138.9 18H134V44Z" fill="white"/>
<path d="M207 18L207 22H217V33V44L223 44V22H233V18H207Z" fill="white"/>
<path d="M237 31V44H240H243V31V18H240H237V31Z" fill="white"/>
<path d="M246 18C246 18 255.2 38.2 258 44L264 44L277 18H270L258 44L264 44L253 18H246Z" fill="white"/>
<path d="M279.9 18L280 44L305 44V40H287V36V32H303V28H287V25V22H304V18L279.9 18Z" fill="white"/>
<path fill-rule="evenodd" clip-rule="evenodd" d="M5.03167 1.91765e-05H60C62.0567 1.91765e-05 63.9036 1.25942 64.6547 3.17405C65.4058 5.08869 64.9078 7.26794 63.3997 8.66636L39.8536 30.5L63.3997 52.3337C64.9078 53.7321 65.4058 55.9113 64.6547 57.826C63.9036 59.7406 62.0567 61 60 61H5C2.23858 61 0 58.7614 0 56V5.00002C0 3.74506 0.462344 2.59809 1.22599 1.72014C1.43416 1.48052 1.66572 1.26002 1.91823 1.06239C2.68964 0.457804 3.64318 0.0749894 4.68287 0.00991641C4.79917 0.00254641 4.9155 -0.000740425 5.03167 1.91765e-05ZM17.7458 51H47.2542L32.5 37.3188L17.7458 51ZM32.5 23.6812L47.2542 10H17.7458L32.5 23.6812ZM25.1464 30.5L10 44.5449V16.4552L25.1464 30.5Z" fill="white"/>
<path d="M60 56L5 5.00001L5 56L60 56Z" fill="url(#paint0_linear_2230_8068)"/>
<path d="M60 5.00002L5 56L5 5.00002L60 5.00002Z" fill="url(#paint1_linear_2230_8068)"/>
<defs>
<linearGradient id="paint0_linear_2230_8068" x1="60" y1="30.5" x2="5" y2="30.5" gradientUnits="userSpaceOnUse">
<stop stop-color="#0E5188"/>
<stop offset="1" stop-color="#0E376B"/>
</linearGradient>
<linearGradient id="paint1_linear_2230_8068" x1="60" y1="30.5" x2="5" y2="30.5" gradientUnits="userSpaceOnUse">
<stop stop-color="#185E99"/>
<stop offset="1" stop-color="#21ACE5"/>
</linearGradient>
</defs>
</svg>
